<svg width="776" height="776" viewBox="0 0 776 776" fill="none" xmlns="http://www.w3.org/2000/svg">
<path fill-rule="evenodd" clip-rule="evenodd" d="M0.458252 388.005C0.458252 602.022 173.968 775.542 388 775.542C602.038 775.542 775.537 602.022 775.537 388.005C775.537 173.973 602.038 0.46344 388 0.46344C173.963 0.46344 0.458252 173.973 0.458252 388.005ZM534.237 218.916L660.754 574.614C663.763 582.439 663.541 591.139 660.138 598.801C656.736 606.462 650.43 612.46 642.607 615.474C635.875 618.058 628.463 618.265 621.597 616.061C614.731 613.857 608.824 609.375 604.854 603.355L604.746 603.168C604.647 602.987 604.528 602.8 604.424 602.66L438.774 330.051H438.743C436.901 326.908 434.457 324.158 431.552 321.959C428.647 319.76 425.337 318.154 421.812 317.235C418.286 316.315 414.614 316.099 411.005 316.599C407.396 317.098 403.921 318.304 400.778 320.147C397.426 322.111 394.524 324.757 392.26 327.914C389.996 331.071 388.42 334.668 387.635 338.472C386.85 342.277 386.872 346.204 387.701 349.999C388.529 353.794 390.146 357.373 392.446 360.504C396.996 367.793 399.642 376.369 399.642 385.577C399.642 411.771 378.402 433.036 352.209 433.036C337.652 433.036 335.589 435.26 329.231 442.111C328.882 442.487 328.52 442.878 328.142 443.282L252.341 536.748C248.059 541.877 241.914 545.096 235.259 545.696C228.604 546.296 221.982 544.229 216.851 539.949C212.362 536.194 209.32 530.995 208.246 525.242C207.173 519.489 208.135 513.542 210.968 508.422H210.947L353.718 251.242C353.718 251.242 353.874 251.034 354.009 250.604C356.131 246.279 356.761 241.374 355.801 236.653C354.842 231.933 352.346 227.663 348.703 224.511C345.061 221.358 340.477 219.501 335.668 219.228C330.858 218.956 326.094 220.283 322.119 223.004C319.116 224.465 315.073 229.253 309.951 235.32C297.391 250.195 278.345 272.751 252.258 272.751H170.315C138.747 272.751 113.155 247.154 113.155 215.596C113.155 184.027 138.747 158.435 170.315 158.435H454.991C490.98 158.435 520.344 180.432 534.237 218.916Z" fill="#a497d7"/>
</svg>
