<svg width="424" height="354" viewBox="0 0 424 354" fill="none" xmlns="http://www.w3.org/2000/svg">
<path fill-rule="evenodd" clip-rule="evenodd" d="M422.375 320.876L324.789 46.6309C314.073 16.9596 291.424 0 263.666 0H44.089C19.7396 0 0 19.7315 0 44.071C0 68.4024 19.7396 88.138 44.089 88.138H107.293C135.62 88.138 153.183 53.6707 161.178 49.7828C164.244 47.6852 167.919 46.6616 171.629 46.8717C175.338 47.0819 178.874 48.514 181.683 50.9445C184.493 53.375 186.418 56.667 187.158 60.3065C187.899 63.946 187.412 67.7281 185.776 71.0623C185.672 71.3943 185.552 71.5543 185.552 71.5543L75.4291 269.842H75.4451C73.26 273.79 72.5178 278.375 73.3458 282.81C74.1738 287.246 76.5204 291.255 79.9829 294.149C83.9408 297.449 89.048 299.043 94.1813 298.581C99.3147 298.118 104.054 295.636 107.357 291.681L165.824 219.619C171.422 213.627 172.543 211.719 184.387 211.719C204.591 211.719 220.973 195.323 220.973 175.128C220.973 168.028 218.932 161.416 215.423 155.796C213.649 153.383 212.402 150.623 211.763 147.697C211.124 144.771 211.106 141.743 211.712 138.81C212.318 135.877 213.533 133.103 215.28 130.669C217.026 128.235 219.264 126.195 221.85 124.681C224.274 123.26 226.954 122.33 229.738 121.945C232.522 121.56 235.354 121.726 238.074 122.435C240.793 123.145 243.346 124.382 245.587 126.078C247.827 127.773 249.712 129.893 251.133 132.317H251.157L378.926 342.5C379.006 342.608 379.098 342.752 379.174 342.892L379.258 343.036C382.32 347.677 386.877 351.133 392.172 352.833C397.468 354.532 403.185 354.372 408.378 352.38C414.412 350.056 419.275 345.432 421.9 339.524C424.525 333.617 424.696 326.91 422.375 320.876V320.876Z" fill="black" fill-opacity="0.2"/>
<path fill-rule="evenodd" clip-rule="evenodd" d="M422.375 320.876L324.789 46.6309C314.073 16.9596 291.424 0 263.666 0H44.089C19.7396 0 0 19.7315 0 44.071C0 68.4024 19.7396 88.138 44.089 88.138H107.293C135.62 88.138 153.183 53.6707 161.178 49.7828C164.244 47.6852 167.919 46.6616 171.629 46.8717C175.338 47.0819 178.874 48.514 181.683 50.9445C184.493 53.375 186.418 56.667 187.158 60.3065C187.899 63.946 187.412 67.7281 185.776 71.0623C185.672 71.3943 185.552 71.5543 185.552 71.5543L75.4291 269.842H75.4451C73.26 273.79 72.5178 278.375 73.3458 282.81C74.1738 287.246 76.5204 291.255 79.9829 294.149C83.9408 297.449 89.048 299.043 94.1813 298.581C99.3147 298.118 104.054 295.636 107.357 291.681L165.824 219.619C171.422 213.627 172.543 211.719 184.387 211.719C204.591 211.719 220.973 195.323 220.973 175.128C220.973 168.028 218.932 161.416 215.423 155.796C213.649 153.383 212.402 150.623 211.763 147.697C211.124 144.771 211.106 141.743 211.712 138.81C212.318 135.877 213.533 133.103 215.28 130.669C217.026 128.235 219.264 126.195 221.85 124.681C224.274 123.26 226.954 122.33 229.738 121.945C232.522 121.56 235.354 121.726 238.074 122.435C240.793 123.145 243.346 124.382 245.587 126.078C247.827 127.773 249.712 129.893 251.133 132.317H251.157L378.926 342.5C379.006 342.608 379.098 342.752 379.174 342.892L379.258 343.036C382.32 347.677 386.877 351.133 392.172 352.833C397.468 354.532 403.185 354.372 408.378 352.38C414.412 350.056 419.275 345.432 421.9 339.524C424.525 333.617 424.696 326.91 422.375 320.876V320.876Z" fill="black" fill-opacity="0.2"/>
</svg>
